<svg xmlns="http://www.w3.org/2000/svg" width="25.783" height="25.613" viewBox="0 0 25.783 25.613">
  <path id="Path_38941" data-name="Path 38941" d="M25.026,23.269a8.66,8.66,0,0,0-3.39-13.076A9.9,9.9,0,1,0,4.081,17.974l-1.72,1.707A1.245,1.245,0,0,0,3.24,21.8h7.039a8.66,8.66,0,0,0,7.806,4.949h7.423a1.245,1.245,0,0,0,.878-2.115Zm-15.6-5.184a8.2,8.2,0,0,0,.1,1.237h-3.3l.433-.421a1.237,1.237,0,0,0,0-1.757A7.336,7.336,0,0,1,4.477,11.9,7.423,7.423,0,0,1,11.9,4.477a7.349,7.349,0,0,1,6.99,4.949h-.8a8.66,8.66,0,0,0-8.66,8.66Zm13.039,6.186.062.062H18.086a6.186,6.186,0,1,1,4.379-1.806,1.21,1.21,0,0,0,0,1.744Z" transform="translate(-1.394 -1.532)" fill="#8897a7" stroke="#fff" stroke-width="0.8"/>
</svg>
