<svg xmlns="http://www.w3.org/2000/svg" width="16.31" height="22.833" viewBox="0 0 16.31 22.833">
  <g id="layer1" transform="translate(-3 -1037.362)">
    <path id="rect4179" d="M11.155,1A1.631,1.631,0,0,0,9.524,2.631H6.262V4.262H3.815A.816.816,0,0,0,3,5.077V23.018a.816.816,0,0,0,.815.815H18.494a.816.816,0,0,0,.815-.815V5.077a.816.816,0,0,0-.815-.815H16.048V2.631H12.786A1.631,1.631,0,0,0,11.155,1ZM4.631,5.893H6.262V7.524h9.786V5.893h1.631V22.2H4.631ZM7.077,9.155a.815.815,0,1,0,.815.815A.815.815,0,0,0,7.077,9.155Zm2.446,0v1.631h6.524V9.155ZM7.077,12.417a.815.815,0,1,0,.815.815A.815.815,0,0,0,7.077,12.417Zm2.446,0v1.631h6.524V12.417ZM7.077,15.679a.815.815,0,1,0,.815.815A.815.815,0,0,0,7.077,15.679Zm2.446,0V17.31h6.524V15.679ZM7.077,18.941a.815.815,0,1,0,.815.815A.815.815,0,0,0,7.077,18.941Zm2.446,0v1.631h6.524V18.941Z" transform="translate(0 1036.362)" fill="#8897a7"/>
  </g>
</svg>
