<svg xmlns="http://www.w3.org/2000/svg" width="25.054" height="25.054" viewBox="0 0 25.054 25.054">
  <g id="_81_Edit" data-name="81 Edit" transform="translate(-2 -1.846)">
    <path id="Path_38797" data-name="Path 38797" d="M21.544,26.644H5.6a3.1,3.1,0,0,1-3.1-3.1V7.6A3.1,3.1,0,0,1,5.6,4.5h7.972a1.329,1.329,0,0,1,0,2.657H5.6a.443.443,0,0,0-.443.443V23.544a.443.443,0,0,0,.443.443H21.544a.443.443,0,0,0,.443-.443V15.572a1.329,1.329,0,0,1,2.657,0v7.972a3.1,3.1,0,0,1-3.1,3.1Z" transform="translate(0 -0.243)" fill="#8897a7" stroke="#fff" stroke-width="1"/>
    <path id="Path_38798" data-name="Path 38798" d="M11.828,19.315a1.329,1.329,0,0,1-1.32-1.5l.5-3.862a1.346,1.346,0,0,1,.372-.771L21,3.575A3.711,3.711,0,1,1,26.24,8.819l-9.61,9.619a1.346,1.346,0,0,1-.771.372l-3.862.5ZM15.69,17.5ZM13.6,14.744l-.221,1.71,1.692-.239,9.292-9.274a1.045,1.045,0,0,0,0-1.488,1.072,1.072,0,0,0-1.488,0Z" transform="translate(-0.914 0)" fill="#8897a7" stroke="#fff" stroke-width="1"/>
  </g>
</svg>
