<svg xmlns="http://www.w3.org/2000/svg" xmlns:xlink="http://www.w3.org/1999/xlink" width="25.285" height="21.973" viewBox="0 0 25.285 21.973">
  <defs>
    <clipPath id="clip-path">
      <rect id="Rectangle_2822" data-name="Rectangle 2822" width="25.285" height="21.973" fill="#454545"/>
    </clipPath>
  </defs>
  <g id="Group_74753" data-name="Group 74753" clip-path="url(#clip-path)">
    <path id="Path_38943" data-name="Path 38943" d="M25.107,3.185a.6.6,0,0,0-.426-.176h0l-1.8.007V.6a.6.6,0,0,0-.6-.6H21.52C17,0,14.35.656,12.641,2.241,10.933.656,8.284,0,3.762,0H3.01a.6.6,0,0,0-.6.6V3.016L.6,3.009a.6.6,0,0,0-.427.176A.6.6,0,0,0,0,3.611v15.5a.6.6,0,0,0,.6.6h.753c8.1,0,9.832,1.828,10,2.039a.608.608,0,0,0,.466.219H13.46a.608.608,0,0,0,.467-.219c.17-.211,1.9-2.039,10-2.039h.753a.6.6,0,0,0,.6-.6V3.611a.609.609,0,0,0-.178-.426M1.2,18.511V4.215l1.2.005v14.3q-.511-.011-1.054-.011H1.2m2.408.05V1.2h.151c4.4,0,6.828.622,8.276,2.136V20.728c-.8-.732-2.925-1.911-8.427-2.167m9.632,2.167V3.339C14.693,1.826,17.122,1.2,21.521,1.2h.151V18.561c-5.5.255-7.63,1.434-8.427,2.167M24.08,18.511h-.151c-.363,0-.713,0-1.054.011V4.22l1.2-.005Z" fill="#454545"/>
  </g>
</svg>
