<svg xmlns="http://www.w3.org/2000/svg" width="17.084" height="21.502" viewBox="0 0 17.084 21.502">
  <path id="Path_38793" data-name="Path 38793" d="M8.256,1.2H14.44a1.908,1.908,0,0,1,1.944,1.869V18.933A1.908,1.908,0,0,1,14.44,20.8h-12A1.908,1.908,0,0,1,.5,18.933V3.065A1.908,1.908,0,0,1,2.444,1.2h.8M8.256,8.817V1.085A.581.581,0,0,0,7.68.5H3.819a.581.581,0,0,0-.576.585V8.817a.576.576,0,0,0,.847.516l1.388-.752a.57.57,0,0,1,.543,0l1.388.752A.576.576,0,0,0,8.256,8.817Z" transform="translate(0.1 0.1)" fill="none" stroke="#454545" stroke-miterlimit="10" stroke-width="1.2"/>
</svg>
