<svg xmlns="http://www.w3.org/2000/svg" viewBox="0 0 23.98 24"><path d="M12,20.28H2.56a3,3,0,0,1-.18-6V10.49C2.38,4.45,6.42,0,12,0s9.6,4.53,9.6,10.79v3.53A3.07,3.07,0,0,1,23.9,18h0a3,3,0,0,1-2.49,2.29ZM2.56,16.16c-.27,0-.72.59-.72,1.17s.45,1.18.72,1.18H21.41c.25,0,.72-.58.72-1.18s-.47-1.17-.72-1.17h-.75a.94.94,0,0,1-.93-.92V10.79c0-5.19-3.27-8.91-7.75-8.91s-7.74,3.6-7.74,8.6v4.73a.92.92,0,0,1-.92.92Z" fill="#010101"/><rect x="7.32" y="22.23" width="9.33" height="1.77" rx="0.88" fill="#010101"/></svg>