<svg xmlns="http://www.w3.org/2000/svg" xmlns:xlink="http://www.w3.org/1999/xlink" width="26.643" height="23.98" viewBox="0 0 26.643 23.98">
  <defs>
    <clipPath id="clip-path">
      <rect id="Rectangle_2823" data-name="Rectangle 2823" width="26.643" height="23.98" fill="#454545" stroke="#454545" stroke-width="0.2"/>
    </clipPath>
  </defs>
  <g id="Group_74754" data-name="Group 74754" transform="translate(0 0)">
    <g id="Group_74754-2" data-name="Group 74754" transform="translate(0 0)" clip-path="url(#clip-path)">
      <path id="Path_38944" data-name="Path 38944" d="M17.619,19.432a.5.5,0,0,0-.494.494v4.519H.989V3.156H17.125V6.913a.494.494,0,1,0,.989,0V2.661a.494.494,0,0,0-.494-.494H.494A.494.494,0,0,0,0,2.661V24.939a.494.494,0,0,0,.494.494H17.619a.5.5,0,0,0,.494-.494V19.926a.494.494,0,0,0-.494-.494" transform="translate(0 -1.453)" fill="#454545" stroke="#454545" stroke-width="0.2"/>
      <path id="Path_38945" data-name="Path 38945" d="M48.986,2.032a.5.5,0,0,0-.212-.313L46.292.082A.5.5,0,0,0,45.92.01a.493.493,0,0,0-.313.213L43.79,2.983a.5.5,0,0,0-.046.089L34.132,17.657a.5.5,0,0,0-.049.1.488.488,0,0,0-.112.236l-.624,3.728a.494.494,0,0,0,.771.486l3.1-2.163a.5.5,0,0,0,.08-.07.487.487,0,0,0,.143-.138L47.054,5.243a.508.508,0,0,0,.047-.092L48.914,2.4a.494.494,0,0,0,.072-.372M34.852,18.723l1.3.856-1.634,1.142Zm2.032.155-1.654-1.09L44.3,4.022l1.654,1.09Zm9.607-14.6L44.838,3.19l1.23-1.87a.169.169,0,0,1,.235-.048l1.373.905a.169.169,0,0,1,.048.235Z" transform="translate(-22.353 0)" fill="#454545" stroke="#454545" stroke-width="0.2"/>
      <path id="Path_38946" data-name="Path 38946" d="M17.511,19.108a.494.494,0,1,0,0-.989h-9.2a.494.494,0,1,0,0,.989Z" transform="translate(-5.243 -12.148)" fill="#454545" stroke="#454545" stroke-width="0.2"/>
      <path id="Path_38947" data-name="Path 38947" d="M8.663,31.464h9.194a.494.494,0,0,0,0-.989H8.663a.494.494,0,1,0,0,.989" transform="translate(-5.477 -20.432)" fill="#454545" stroke="#454545" stroke-width="0.2"/>
    </g>
  </g>
</svg>
