<svg xmlns="http://www.w3.org/2000/svg" width="16.999" height="12.363" viewBox="0 0 16.999 12.363">
  <path id="Path_38805" data-name="Path 38805" d="M11.817,10.181A3.091,3.091,0,1,0,8.727,7.091,3.09,3.09,0,0,0,11.817,10.181ZM4.863,8.636V7.091a.773.773,0,1,0-1.545,0V8.636H1.773a.773.773,0,0,0,0,1.545H3.318v1.545a.773.773,0,1,0,1.545,0V10.181H6.409a.773.773,0,1,0,0-1.545Zm6.954,3.091c-2.063,0-6.181,1.035-6.181,3.091v.773a.775.775,0,0,0,.773.773H17.226A.775.775,0,0,0,18,15.59v-.773C18,12.762,13.88,11.727,11.817,11.727Z" transform="translate(-1 -4)" fill="#feb703"/>
</svg>
