<svg xmlns="http://www.w3.org/2000/svg" xmlns:xlink="http://www.w3.org/1999/xlink" width="9.996" height="12.282" viewBox="0 0 9.996 12.282">
  <defs>
    <clipPath id="clip-path">
      <rect id="Rectangle_2835" data-name="Rectangle 2835" width="9.996" height="12.282" fill="#d1d3d5"/>
    </clipPath>
  </defs>
  <g id="Group_74772" data-name="Group 74772" transform="translate(0 0)">
    <g id="Group_74770" data-name="Group 74770" transform="translate(0 0)" clip-path="url(#clip-path)">
      <path id="Path_38955" data-name="Path 38955" d="M9.753,5.968A5,5,0,0,0,8.563,4a.68.68,0,0,0-.128-.1.555.555,0,0,0-.76.2l-.017.032a3.213,3.213,0,0,1-.777.987A4.839,4.839,0,0,0,4.513.072.555.555,0,0,0,3.685.52,3.9,3.9,0,0,1,2.313,3.263l-.128.1A4.73,4.73,0,0,0,1.081,4.4,4.987,4.987,0,0,0,3.11,12.124a.555.555,0,0,0,.766-.514.592.592,0,0,0-.028-.173A3.884,3.884,0,0,1,3.743,10a5,5,0,0,0,2.395,2.23.557.557,0,0,0,.4.021A4.994,4.994,0,0,0,9.753,5.968" transform="translate(0 0)" fill="#d1d3d5"/>
    </g>
  </g>
</svg>
