<svg xmlns="http://www.w3.org/2000/svg" width="22.094" height="22.094" viewBox="0 0 22.094 22.094">
  <path id="Path_38792" data-name="Path 38792" d="M21.639,20.38,17.874,16.7h0l-.088-.134a.887.887,0,0,0-1.245,0h0a8.886,8.886,0,0,1-11.521.373A8.411,8.411,0,0,1,3.15,5.816,8.845,8.845,0,0,1,14.188,2.565a8.479,8.479,0,0,1,4.725,10.28.853.853,0,0,0,.2.845.9.9,0,0,0,.848.254.879.879,0,0,0,.649-.591h0A10.224,10.224,0,0,0,15.133,1.031,10.684,10.684,0,0,0,1.85,4.475,10.138,10.138,0,0,0,3.34,17.831a10.722,10.722,0,0,0,13.73.565L20.4,21.655a.9.9,0,0,0,1.245,0,.859.859,0,0,0,0-1.227h0Z" fill="#8897a7"/>
</svg>
